# xmcd CD database file
#
# Track frame offsets:
#	150
#	15275
#	28547
#	40090
#	67395
#	81760
#	99427
#	113545
#	127152
#	138305
#	151787
#	161832
#	181217
#	213035
#	230487
#	241825
#	255020
#	269845
#	282002
#	319010
#
# Disc length: 4485 seconds
#
# Revision: 4
# Processed by: cddbd v1.5.1PL0 Copyright (c) Steve Scherf et al.
# Submitted via: CDex 1.50
#
DISCID=03118314
DTITLE=George Gershwin - The Best Of Gershwin [CD1 - Jazz Songs)
DYEAR=1900
DGENRE=Jazz
TTITLE0=Summertime (Miles Davis)
TTITLE1=It Ain't Necesarily So (Aretha Fraklin)
TTITLE2=A Foggy Day (George Benson)
TTITLE3=Bess You Is My Woman Now (Tommy Flanagan)
TTITLE4=Isn't It A Pity ? (Mel Torme)
TTITLE5=I Got Rhythm (Benny Goodman Sextet)
TTITLE6=The Man I Love (Billie Holiday)
TTITLE7=The Can't Take That Way From Me (Ahmad Jamal)
TTITLE8=Nice Work If You Can Get It (Ella fitzgerald)
TTITLE9=Loved Walked In (Chet Baker)
TTITLE10=The All Laughed (Tony Bennet)
TTITLE11=Embraceable You (Supersax and L.A. Voices)
TTITLE12=Who Cares (Stan Getz)
TTITLE13=Summertime (Duke Ellington)
TTITLE14=Liza (Stephane Grappelli)
TTITLE15=Slap That Bass (Fred Astaire)
TTITLE16=How Long Has This Been Going On ? (Benny Goodman Orchestra Featuring Peggy Lee)
TTITLE17=Of Thee I Sing (The Hi-Lo's With The Marty Paich Dek-Tette)
TTITLE18=The Man I Love (Erroll Garner)
TTITLE19=Swanee (Woody Herman Orchestra)
EXTD=
EXTT0=
EXTT1=
EXTT2=
EXTT3=
EXTT4=
EXTT5=
EXTT6=
EXTT7=
EXTT8=
EXTT9=
EXTT10=
EXTT11=
EXTT12=
EXTT13=
EXTT14=
EXTT15=
EXTT16=
EXTT17=
EXTT18=
EXTT19=
PLAYORDER=
